<svg width="50" height="50" viewBox="0 0 50 50" fill="none" xmlns="http://www.w3.org/2000/svg">
<path fill-rule="evenodd" clip-rule="evenodd" d="M31.7299 29.2775C30.4898 22.8401 22.9437 17.321 22.9437 17.321C23.2733 16.9025 23.678 16.4679 23.678 16.4679C24.054 16.0641 24.2834 15.807 24.2834 15.807C24.4178 15.6564 24.6418 15.4098 24.6418 15.4098C25.5405 14.4205 26.2332 13.1175 26.2332 13.1175C26.8477 11.9619 27.2462 10.009 27.2462 10.009C27.3515 9.49296 27.427 9 27.427 9C29.2128 10.5528 30.0981 11.8497 30.0981 11.8497C30.9777 13.1384 31.765 15.3735 31.765 15.3735C32.2924 16.808 32.3793 17.3796 32.3793 17.3796C32.4351 17.6411 32.4657 17.8952 32.625 18.1026C33.0243 18.6222 33.7692 18.7197 34.2888 18.3205C34.307 18.3065 34.363 18.2648 34.363 18.2648C35.3902 17.4994 36.0399 16.5246 36.0399 16.5246C36.1688 16.8941 36.3226 17.3562 36.3226 17.3562C36.9999 19.3919 37 21.5416 37 21.5416C37 25.1209 35.5217 27.1885 35.5217 27.1885C34.1734 29.0742 31.7299 29.2775 31.7299 29.2775ZM29.3261 17.9945C29.6537 17.9945 29.9193 17.7289 29.9193 17.4012C29.9193 17.0736 29.6537 16.808 29.3261 16.808C28.9984 16.808 28.7328 17.0736 28.7328 17.4012C28.7328 17.7289 28.9984 17.9945 29.3261 17.9945ZM21.2951 19.0568C28.2227 24.0366 29.3721 29.6059 29.3721 29.6059C27.3185 29.9537 26.1101 30.003 26.1101 30.003C23.8638 30.0945 22.0456 29.4513 22.0456 29.4513C19.3386 28.4938 16.2282 28.6969 16.2282 28.6969C14.5131 28.8089 13.2907 29.2789 13.2907 29.2789C14.5711 23.8901 21.2951 19.0568 21.2951 19.0568ZM15.4221 37.7178C13.1498 35.4455 13 32.2939 13 32.2939C13.0111 32.2802 13.022 32.2663 13.0325 32.2521V32.2521C13.788 31.2344 16.3829 31.0649 16.3829 31.0649C19.0068 30.8935 21.2542 31.6885 21.2542 31.6885C23.5035 32.4842 26.2067 32.3741 26.2067 32.3741C27.5081 32.321 29.5999 31.9736 29.5999 31.9736C29.5551 35.3307 27.1681 37.7178 27.1681 37.7178C24.7354 40.1505 21.2951 40.1505 21.2951 40.1505C17.8548 40.1505 15.4221 37.7178 15.4221 37.7178Z" fill="white"/>
</svg>
