<svg width="50" height="50" viewBox="0 0 50 50" fill="none" xmlns="http://www.w3.org/2000/svg">
<path fill-rule="evenodd" clip-rule="evenodd" d="M35.1216 31.6473C33.2566 21.9657 21.9074 13.665 21.9074 13.665C22.4031 13.0356 23.0117 12.382 23.0117 12.382C23.5772 11.7748 23.9223 11.3881 23.9223 11.3881C24.1244 11.1616 24.4613 10.7907 24.4613 10.7907C25.8128 9.30271 26.8548 7.34309 26.8548 7.34309C27.7789 5.60511 28.3782 2.66792 28.3782 2.66792C28.5366 1.89189 28.6501 1.15048 28.6501 1.15048C31.336 3.48591 32.6674 5.43636 32.6674 5.43636C33.9903 7.37447 35.1744 10.7361 35.1744 10.7361C35.9675 12.8934 36.0983 13.7532 36.0983 13.7532C36.1822 14.1465 36.2282 14.5287 36.4678 14.8405C37.0683 15.622 38.1886 15.7687 38.9701 15.1682C38.9974 15.1472 39.0817 15.0845 39.0817 15.0845C40.6266 13.9334 41.6037 12.4673 41.6037 12.4673C41.7976 13.023 42.0289 13.7179 42.0289 13.7179C43.0475 16.7797 43.0477 20.0128 43.0477 20.0128C43.0477 25.3959 40.8243 28.5055 40.8243 28.5055C38.7965 31.3415 35.1216 31.6473 35.1216 31.6473ZM31.5063 14.6779C31.9991 14.6779 32.3985 14.2785 32.3985 13.7857C32.3985 13.2929 31.9991 12.8934 31.5063 12.8934C31.0135 12.8934 30.614 13.2929 30.614 13.7857C30.614 14.2785 31.0135 14.6779 31.5063 14.6779ZM19.4279 16.2756C29.8469 23.7651 31.5756 32.1411 31.5756 32.1411C28.487 32.6644 26.6695 32.7384 26.6695 32.7384C23.2912 32.876 20.5566 31.9087 20.5566 31.9087C16.4855 30.4686 11.8075 30.7741 11.8075 30.7741C9.22803 30.9426 7.38946 31.6494 7.38946 31.6494C9.31529 23.5448 19.4279 16.2756 19.4279 16.2756ZM10.5951 44.3413C7.17756 40.9238 6.95233 36.1839 6.95233 36.1839C6.96908 36.1633 6.98537 36.1423 7.00123 36.1209V36.1209C8.13751 34.5904 12.0401 34.3355 12.0401 34.3355C15.9865 34.0778 19.3664 35.2734 19.3664 35.2734C22.7493 36.4701 26.8148 36.3044 26.8148 36.3044C28.7721 36.2247 31.9181 35.7022 31.9181 35.7022C31.8507 40.7512 28.2607 44.3412 28.2607 44.3412C24.602 48 19.4279 48 19.4279 48C14.2538 48 10.5951 44.3413 10.5951 44.3413Z" fill="white"/>
</svg>
