<svg width="185" height="25" viewBox="0 0 185 25" fill="none" xmlns="http://www.w3.org/2000/svg">
<path fill-rule="evenodd" clip-rule="evenodd" d="M26.015 16.8581C26.015 16.8622 26.0152 16.8662 26.0153 16.8703L26.086 17.8695C26.2725 20.173 27.3067 21.8925 29.1888 23.028C31.0477 24.1494 33.5899 24.7101 36.8154 24.7101C40.3422 24.7101 42.8461 24.0882 44.327 22.8445C46.1377 21.5865 47.043 19.7608 47.043 17.3675C47.043 15.2394 46.2193 13.703 44.5719 12.7582C42.9624 11.8351 40.6512 11.1173 37.6386 10.6049C34.6098 10.1699 32.7502 9.71204 32.0597 9.23144C31.1065 8.77306 30.6299 8.13749 30.6299 7.32472C30.6299 6.43966 31.0507 5.72636 31.8924 5.18482C32.7586 4.62729 34.1557 4.34852 36.0837 4.34849C38.58 4.34849 40.2164 4.61111 40.9928 5.13635C41.8606 5.76327 42.366 6.62758 42.5089 7.72927L42.5696 8.29576C42.5784 8.3782 42.6444 8.44046 42.7228 8.44046H46.3156C46.4007 8.44046 46.4697 8.36744 46.4697 8.27735C46.4697 8.27251 46.4695 8.26764 46.4691 8.26282L46.4129 7.59667L46.4123 7.59199C46.1875 5.58817 45.2312 3.91421 43.5434 2.5701C41.8676 1.34482 39.3784 0.787257 36.0757 0.89742C32.7254 0.89742 30.3743 1.51517 29.0225 2.75068C27.3447 3.99868 26.5059 5.63963 26.5059 7.67355C26.5059 9.62821 27.3119 11.1634 28.9241 12.2791C30.5092 13.376 32.7703 14.1621 35.7075 14.6375C38.8163 15.1017 40.7363 15.5268 41.4675 15.9128C42.4485 16.2768 42.939 16.9546 42.939 17.9462C42.939 18.9282 42.4591 19.729 41.4993 20.3486C40.5151 20.984 38.9318 21.3017 36.7494 21.3016C34.2962 21.3016 32.6944 21.0146 31.9438 20.4406C30.9106 19.8807 30.3073 18.9608 30.134 17.6809L30.0567 16.8423C30.049 16.7587 29.9827 16.695 29.9033 16.695H26.1693C26.0841 16.695 26.015 16.7681 26.015 16.8581ZM97.0018 3.82223C94.8855 5.73387 93.8274 8.58909 93.8274 12.3879V13.0565C93.8274 16.9365 94.8854 19.8392 97.0014 21.7646C99.1107 23.6835 101.758 24.643 104.942 24.643C108.13 24.643 110.794 23.6838 112.935 21.7654C115.085 19.84 116.159 16.9371 116.159 13.0565V12.3879C116.159 8.58864 115.084 5.73315 112.935 3.82141C110.794 1.91678 108.129 0.964471 104.942 0.964473C101.758 0.964473 99.1108 1.91706 97.0018 3.82223ZM143.737 3.82223C141.621 5.73397 140.563 8.58919 140.563 12.3879V13.0565C140.563 16.9366 141.621 19.8393 143.737 21.7646C145.846 23.6835 148.493 24.643 151.678 24.643C154.865 24.643 157.53 23.6838 159.671 21.7654C161.82 19.84 162.895 16.9371 162.895 13.0565V12.3879C162.895 8.58864 161.82 5.73315 159.671 3.82141C157.529 1.91679 154.865 0.964475 151.678 0.964473C148.493 0.964473 145.846 1.91706 143.737 3.82223ZM14.3851 1.43523C14.3587 1.38072 14.3057 1.34643 14.2478 1.34643H10.5501C10.4904 1.34643 10.4361 1.38283 10.4106 1.4399L0.330684 24.0126C0.313216 24.0517 0.311161 24.0966 0.324972 24.1373C0.338782 24.178 0.367325 24.2113 0.404322 24.2298C0.424916 24.2399 0.447409 24.2453 0.470183 24.2453H1.46775C1.48111 24.2453 1.49442 24.2435 1.50734 24.2399L15.3666 20.3489C15.4062 20.3378 15.4399 20.3105 15.4604 20.2731C15.481 20.2357 15.4866 20.1912 15.4761 20.1494C15.474 20.1407 15.4711 20.1323 15.4676 20.1241L14.0817 16.8816C14.0505 16.8087 13.974 16.7704 13.9009 16.7913L6.8169 18.8112L11.7666 6.62003C11.9214 6.28697 12.0382 6.03047 12.1169 5.85054C12.1683 5.73291 12.2287 5.59194 12.298 5.42763C12.365 5.58775 12.426 5.72784 12.4807 5.84788C12.5653 6.03309 12.6845 6.28777 12.8384 6.61191L20.7984 24.1528C20.8241 24.2094 20.8782 24.2453 20.9374 24.2453H25.173C25.2581 24.2453 25.3273 24.1722 25.3273 24.0823C25.3273 24.0565 25.3215 24.0309 25.3103 24.008L14.3851 1.43523ZM72.5588 1.36219C72.4736 1.36219 72.4045 1.43522 72.4045 1.52529V24.0823C72.4045 24.1722 72.4736 24.2453 72.5588 24.2453H76.1799C76.2651 24.2453 76.3342 24.1722 76.3342 24.0823L76.3331 4.83286H84.2968C85.4676 4.83286 86.3607 5.17809 86.9762 5.86853C87.5943 6.56171 87.9033 7.49341 87.903 8.66364C87.903 9.8131 87.5951 10.75 86.9794 11.4742C86.3681 12.1934 85.4739 12.553 84.2968 12.553L78.6177 12.553C78.5326 12.553 78.4634 12.626 78.4634 12.7161V13.3807C78.4634 13.4223 78.4785 13.4624 78.5055 13.4927L88.053 24.1941C88.0821 24.2268 88.1227 24.2453 88.1652 24.2453H92.6309C92.7163 24.2453 92.7852 24.1722 92.7852 24.0823C92.7852 24.04 92.7698 23.9995 92.742 23.9689L85.4329 15.9598C87.2032 15.8348 88.6976 15.1443 89.9163 13.8884C91.2154 12.5495 91.865 10.7691 91.865 8.54699C91.865 6.32698 91.2369 4.57415 89.9808 3.2885C88.7262 2.0043 86.9659 1.36219 84.7 1.36219H72.5588ZM48.1973 1.36219C48.1119 1.36219 48.043 1.43522 48.043 1.52529V4.81283C48.043 4.90291 48.1119 4.97594 48.1973 4.97594H56.7854V24.0823C56.7854 24.1722 56.8545 24.2453 56.9397 24.2453H60.5837C60.6691 24.2453 60.738 24.1722 60.738 24.0823V4.97594H69.3256C69.4107 4.97594 69.4799 4.90291 69.4799 4.81283V1.52529C69.4799 1.43522 69.4107 1.36219 69.3256 1.36219H48.1973ZM136.704 10.5922C137.293 9.67756 137.587 8.54873 137.587 7.20568C137.587 5.24695 136.977 3.78067 135.756 2.80685C134.549 1.84375 132.91 1.36219 130.838 1.36219H119.824C119.739 1.36219 119.67 1.43522 119.67 1.52529V24.0823C119.67 24.1722 119.739 24.2453 119.824 24.2453H131.258C133.319 24.2453 135.042 23.6959 136.429 22.5971C137.831 21.4875 138.531 19.8623 138.531 17.7216C138.531 16.0245 138.143 14.715 137.368 13.7932C136.695 12.9938 135.917 12.4617 135.031 12.197C135.656 11.891 136.213 11.356 136.704 10.5922ZM171.672 12.5977L163.033 1.62973C163.01 1.60043 162.998 1.5635 162.998 1.52536C162.998 1.43528 163.067 1.36226 163.152 1.36226L167.346 1.36219C167.391 1.36219 167.434 1.38326 167.463 1.41968L174.238 9.83686L180.249 1.42392C180.278 1.38497 180.322 1.36226 180.37 1.36226L184.663 1.36219C184.698 1.36219 184.733 1.37478 184.76 1.39788C184.792 1.42488 184.812 1.46422 184.817 1.50721C184.821 1.5502 184.81 1.5934 184.784 1.62719L176.801 12.5977L184.786 23.9828C184.807 24.0112 184.818 24.0461 184.818 24.0823C184.818 24.1722 184.749 24.2453 184.663 24.2453H180.37C180.321 24.2453 180.276 24.2215 180.247 24.181L174.238 15.3883L167.466 24.1853C167.436 24.2233 167.392 24.2453 167.346 24.2453H163.152C163.117 24.2453 163.083 24.2326 163.055 24.2094C163.024 24.1824 163.003 24.143 162.999 24.1C162.994 24.0571 163.006 24.014 163.032 23.9802L171.672 12.5977ZM110.086 19.2491C108.733 20.5356 107.023 21.1766 104.958 21.1721C102.898 21.1677 101.203 20.5247 99.8733 19.2431C98.5478 17.9655 97.8852 15.9993 97.8853 13.3445V12.1577C97.8854 9.55687 98.5444 7.62917 99.8623 6.37458C101.185 5.1156 102.883 4.48833 104.958 4.49276C107.036 4.4972 108.749 5.12712 110.097 6.38252C111.439 7.63248 112.109 9.56019 112.109 12.1657V13.3622C112.109 16.0048 111.435 17.9671 110.086 19.2491ZM156.822 19.2491C155.468 20.5356 153.759 21.1766 151.694 21.1721C149.633 21.1677 147.939 20.5247 146.609 19.2431C145.284 17.9654 144.621 15.9993 144.621 13.3445V12.1577C144.621 9.55687 145.28 7.62917 146.598 6.37458C147.92 5.1156 149.619 4.48833 151.693 4.49276C153.772 4.4972 155.485 5.12712 156.832 6.38252C158.174 7.63249 158.845 9.56021 158.845 12.1657V13.3622C158.845 16.0048 158.17 17.9671 156.822 19.2491ZM132.887 5.45785C133.444 5.97196 133.722 6.74307 133.722 7.77116C133.722 8.79556 133.442 9.58202 132.882 10.1305C132.319 10.6822 131.497 10.958 130.416 10.958H123.56V4.67819H130.417C131.5 4.67819 132.323 4.93807 132.887 5.45785ZM133.522 14.7765C134.211 15.3416 134.555 16.1902 134.555 17.3222C134.555 18.6041 134.21 19.5334 133.521 20.1103C132.82 20.6962 131.92 20.9892 130.822 20.9892H123.56V13.9141H130.822C131.921 13.9141 132.821 14.2015 133.522 14.7765Z" fill="white"/>
</svg>
