<svg width="30" height="30" viewBox="0 0 30 30" fill="none" xmlns="http://www.w3.org/2000/svg">
<g clip-path="url(#clip0_112_125)">
<mask id="mask0_112_125" style="mask-type:luminance" maskUnits="userSpaceOnUse" x="0" y="0" width="30" height="30">
<rect width="30" height="30" fill="white"/>
</mask>
<g mask="url(#mask0_112_125)">
<path fill-rule="evenodd" clip-rule="evenodd" d="M4.3934 25.6067C10.2513 31.4645 19.7487 31.4645 25.6066 25.6067C31.4645 19.7488 31.4645 10.2513 25.6066 4.39347C19.7487 -1.4644 10.2513 -1.4644 4.3934 4.39347C-1.46447 10.2513 -1.46447 19.7488 4.3934 25.6067ZM15.6169 18.2686L9.6923 18.2686C9.29447 18.2686 8.91294 18.4267 8.63164 18.708C8.35033 18.9893 8.1923 19.3708 8.1923 19.7686C8.1923 20.1665 8.35033 20.548 8.63164 20.8293C8.91294 21.1106 9.29447 21.2686 9.69309 21.2686L19.2382 21.2686C19.6111 21.2686 19.9707 21.1297 20.2467 20.879C20.2645 20.8629 20.2819 20.8463 20.2989 20.8293C20.5802 20.548 20.7382 20.1665 20.7382 19.7686L20.7382 10.2227C20.7382 9.82487 20.5802 9.44334 20.2989 9.16204C20.0176 8.88073 19.6361 8.7227 19.2382 8.7227C18.8404 8.7227 18.4589 8.88073 18.1776 9.16204C17.8963 9.44334 17.7382 9.82487 17.7382 10.2227V16.1473L10.753 9.16204C10.1672 8.57625 9.21742 8.57625 8.63164 9.16204C8.04585 9.74782 8.04585 10.6976 8.63164 11.2834L15.6169 18.2686Z" fill="white"/>
</g>
</g>
<defs>
<clipPath id="clip0_112_125">
<rect width="30" height="30" fill="white"/>
</clipPath>
</defs>
</svg>
