<svg width="203" height="53" viewBox="0 0 203 53" fill="none" xmlns="http://www.w3.org/2000/svg">
<g id="&#231;&#187;&#132; 1" clip-path="url(#clip0_112_4)">
<path id="&#229;&#135;&#143;&#229;&#142;&#187;&#233;&#161;&#182;&#229;&#177;&#130; 1" fill-rule="evenodd" clip-rule="evenodd" d="M32.0429 34.4896C29.9213 23.5519 17.0115 14.1744 17.0115 14.1744C17.5754 13.4633 18.2677 12.7249 18.2677 12.7249C18.9109 12.0389 19.3035 11.602 19.3035 11.602C19.5334 11.3461 19.9167 10.9271 19.9167 10.9271C21.454 9.24613 22.6392 7.03229 22.6392 7.03229C23.6905 5.06883 24.3722 1.7506 24.3722 1.7506C24.5523 0.873889 24.6814 0.0363007 24.6814 0.0363007C27.7367 2.67471 29.2512 4.87819 29.2512 4.87819C30.756 7.06774 32.1029 10.8655 32.1029 10.8655C33.0051 13.3027 33.1539 14.274 33.1539 14.274C33.2493 14.7183 33.3016 15.1501 33.5742 15.5023C34.2572 16.3852 35.5316 16.551 36.4206 15.8726C36.4516 15.8489 36.5474 15.778 36.5474 15.778C38.3048 14.4775 39.4163 12.8212 39.4163 12.8212C39.6368 13.449 39.8999 14.2342 39.8999 14.2342C41.0586 17.6931 41.0588 21.3456 41.0588 21.3456C41.0588 27.4271 38.5297 30.9401 38.5297 30.9401C36.2231 34.144 32.0429 34.4896 32.0429 34.4896ZM27.9304 15.3187C28.4909 15.3187 28.9453 14.8674 28.9453 14.3107C28.9453 13.754 28.4909 13.3027 27.9304 13.3027C27.3698 13.3027 26.9154 13.754 26.9154 14.3107C26.9154 14.8674 27.3698 15.3187 27.9304 15.3187ZM14.1911 17.1236C26.0428 25.5847 28.0091 35.0474 28.0091 35.0474C24.4959 35.6385 22.4285 35.7222 22.4285 35.7222C18.5856 35.8777 15.475 34.7848 15.475 34.7848C10.844 33.1579 5.52277 33.5031 5.52277 33.5031C2.58863 33.6934 0.497241 34.4918 0.497241 34.4918C2.68789 25.3359 14.1911 17.1236 14.1911 17.1236ZM4.14368 48.8304C0.2562 44.9695 0 39.6147 0 39.6147C0.0190565 39.5914 0.0375869 39.5677 0.0556208 39.5436V39.5436C1.34815 37.8144 5.78734 37.5265 5.78734 37.5265C10.2764 37.2353 14.1211 38.586 14.1211 38.586C17.9692 39.938 22.5937 39.7509 22.5937 39.7509C24.8202 39.6608 28.3988 39.0705 28.3988 39.0705C28.3222 44.7745 24.2385 48.8303 24.2385 48.8303C20.0767 52.9637 14.1911 52.9637 14.1911 52.9637C8.30543 52.9637 4.14368 48.8304 4.14368 48.8304Z" fill="white"/>
<path id="WaterFlames" opacity="0.9" d="M97.4678 21.2749H100.956L100.556 23.9927H97.0371L95.5029 34.1079C95.2524 35.7703 95.4834 36.5767 95.4834 36.5767C95.714 37.373 96.5762 37.3726 96.5762 37.3726C97.3178 37.3724 98.1494 36.7954 98.1494 36.7954L99.1016 39.2749C98.1541 39.7008 97.1273 39.9396 97.1172 39.9419C96.0847 40.1908 95.1318 40.0611 95.1318 40.0611C94.1842 39.942 93.4851 39.3595 93.4785 39.354C92.7869 38.7667 92.4961 37.5718 92.4961 37.5718C92.2055 36.3771 92.5156 34.4361 92.5156 34.4361L94.1797 23.9927H92.1748L92.5762 21.2749H94.6113L95.4131 16.3472H98.2393L97.4678 21.2749ZM61.0498 31.1411C61.0799 31.9276 61.0898 32.8238 61.0898 32.8238C61.1097 33.7116 61.1103 34.5798 61.1104 34.5952C61.3598 33.7627 61.6595 32.7922 61.6621 32.7837C61.9729 31.8081 62.2529 30.8218 62.2529 30.8218L66.6533 15.5406H69.9512L70.2627 31.1411C70.2924 31.9181 70.3025 32.7921 70.3027 32.813C70.3226 33.6814 70.3223 34.5796 70.3223 34.5952C70.5613 33.7645 70.87 32.7964 70.874 32.7837C71.1848 31.8081 71.4648 30.8218 71.4648 30.8218L75.8662 15.5406H79.1641L71.124 39.7525H68.1377L67.4854 25.2476C67.4557 24.6577 67.4656 23.7859 67.4658 23.7642C67.4859 22.8781 67.5156 21.9517 67.5156 21.9517C67.2777 22.8378 67.0299 23.685 67.0244 23.7036C66.7867 24.5495 66.5983 25.114 66.5938 25.1275L61.9121 39.7525H58.9248L57.5117 15.5406H60.749L61.0498 31.1411ZM88.2861 39.7525H85.4492L85.6094 37.8804C84.9277 38.7366 84.0752 39.2447 84.0752 39.2447C83.2388 39.7489 82.3236 39.7524 82.3115 39.7525C80.8435 39.7525 79.7876 38.8361 79.7656 38.8169C78.7209 37.8781 78.3174 35.7718 78.3115 35.7408C77.9134 33.6253 78.4244 30.1057 78.4316 30.0562C79.0708 25.6025 80.765 23.4508 80.7773 23.4351C82.4823 21.2863 84.7231 21.275 84.7471 21.2749C86.798 21.2749 87.7307 23.0103 87.7344 23.0171L87.9453 21.2749H90.9326L88.2861 39.7525ZM108.545 21.2749C110.8 21.2751 111.902 22.44 111.902 22.44C113.015 23.5948 113.216 25.7652 113.216 25.7652C113.416 27.9355 112.955 31.0015 112.955 31.0015H104.324C104.144 32.5645 104.174 33.9488 104.174 33.9488C104.204 35.3144 104.69 36.1684 104.695 36.1783C105.186 37.0344 106.39 37.0347 106.39 37.0347C108.601 37.0344 109.593 34.0888 109.597 34.0777L112.334 34.4761C111.593 36.9711 109.963 38.3644 109.958 38.3687C108.347 39.7412 106.155 39.7524 106.119 39.7525C103.773 39.7525 102.66 38.5376 102.66 38.5376C101.558 37.3131 101.357 35.2027 101.357 35.2027C101.157 33.0943 101.497 30.3899 101.498 30.3843C101.869 27.6963 102.681 25.6451 102.681 25.6451C103.486 23.6123 104.911 22.4599 104.936 22.44C106.389 21.2752 108.545 21.2749 108.545 21.2749ZM119.802 23.5943C120.694 22.35 121.917 21.812 121.917 21.812C123.14 21.279 124.491 21.275 124.513 21.2749L124.112 24.1118C122.418 23.9028 121.024 24.9488 121.024 24.9488C119.648 25.979 119.155 28.2212 119.15 28.2437L117.486 39.7525H114.559L117.216 21.2749H120.133L119.802 23.5943ZM137.925 18.2583H129.977L128.903 25.7349H135.59L135.219 28.4527H128.473L126.898 39.7525H123.731L127.209 15.5406H138.296L137.925 18.2583ZM139.358 39.7525H136.371L140.04 14.2661H143.027L139.358 39.7525ZM153.724 39.7525H150.887L151.047 37.8804C150.365 38.7366 149.513 39.2447 149.513 39.2447C148.677 39.7486 147.762 39.7524 147.749 39.7525C146.281 39.7525 145.225 38.8364 145.203 38.8169C144.158 37.8782 143.755 35.7719 143.749 35.7408C143.351 33.6252 143.862 30.1056 143.869 30.0562C144.508 25.6015 146.203 23.4498 146.215 23.4351C147.92 21.2858 150.162 21.275 150.185 21.2749C152.236 21.2749 153.169 23.0115 153.172 23.0171L153.383 21.2749H156.37L153.724 39.7525ZM162.233 23.2759C162.998 22.2107 163.92 21.7511 163.938 21.7427C164.88 21.2748 165.772 21.2749 165.772 21.2749C166.996 21.275 167.924 21.9022 167.938 21.9117C168.873 22.5342 169.156 24.0301 169.16 24.0523C169.956 22.5507 171.008 21.9213 171.024 21.9117C172.082 21.2777 173.119 21.2749 173.13 21.2749C174.229 21.2749 175.093 21.7802 175.114 21.7925C175.996 22.3102 176.408 23.4751 176.408 23.4751C176.829 24.64 176.519 26.6314 176.519 26.6314L174.613 39.7525H171.597L173.471 27.149C173.928 24.0205 171.932 23.9929 171.897 23.9927C170.885 23.9927 170.143 24.9185 170.143 24.9185C169.418 25.8253 169.077 27.2593 169.07 27.2876L167.256 39.7525H164.229L166.113 27.149C166.574 23.993 164.539 23.9927 164.539 23.9927C163.557 23.9928 162.815 24.8892 162.815 24.8892C162.079 25.7693 161.747 27.1596 161.742 27.1783L159.888 39.7525H156.901L159.587 21.2749H162.384L162.233 23.2759ZM185.53 21.2749C187.785 21.2751 188.888 22.44 188.888 22.44C190 23.5948 190.201 25.7652 190.201 25.7652C190.402 27.9355 189.94 31.0015 189.94 31.0015H181.31C181.129 32.5645 181.159 33.9488 181.159 33.9488C181.189 35.3161 181.676 36.1704 181.681 36.1783C182.172 37.0344 183.375 37.0347 183.375 37.0347C185.588 37.0344 186.58 34.0829 186.582 34.0777L189.319 34.4761C188.58 36.9663 186.955 38.3591 186.943 38.3687C185.319 39.7525 183.104 39.7525 183.104 39.7525C180.758 39.7523 179.646 38.5376 179.646 38.5376C178.543 37.3131 178.343 35.2027 178.343 35.2027C178.143 33.1002 178.48 30.405 178.482 30.3843C178.853 27.6963 179.666 25.6451 179.666 25.6451C180.471 23.6109 181.898 22.4584 181.921 22.44C183.374 21.2752 185.53 21.2749 185.53 21.2749ZM198.411 21.2749C199.635 21.275 200.721 21.7951 200.736 21.8023C201.821 22.3258 202.461 23.4278 202.471 23.4449C203.122 24.5599 202.972 26.3423 202.972 26.3423H200.325C200.385 25.1078 199.794 24.5503 199.794 24.5503C199.219 23.9994 198.429 23.9928 198.411 23.9927C197.77 23.9927 197.228 24.3413 197.228 24.3413C196.687 24.69 196.506 25.6158 196.506 25.6158C196.356 26.3602 196.734 27.0454 196.736 27.0493C197.116 27.7248 197.776 28.3901 197.779 28.3931C198.438 29.0572 199.206 29.7804 199.213 29.7867C199.985 30.5035 200.626 31.3501 200.626 31.3501C201.274 32.1912 201.595 33.1993 201.599 33.2115C201.927 34.2082 201.683 35.4987 201.679 35.521C201.429 36.9291 200.602 37.8729 200.596 37.8804C199.774 38.8162 198.631 39.2847 198.631 39.2847C197.497 39.7487 196.275 39.7524 196.256 39.7525C194.999 39.7525 193.882 39.2102 193.87 39.2046C192.747 38.667 192.056 37.562 192.056 37.562C191.364 36.447 191.364 34.7447 191.364 34.7447H194.16C194.23 35.8696 194.923 36.4576 194.923 36.4576C195.606 37.0278 196.485 37.0346 196.506 37.0347C197.218 37.0347 197.81 36.6167 197.81 36.6167C198.411 36.1886 198.571 35.2027 198.571 35.2027C198.75 34.2453 198.387 33.4641 198.381 33.4507C198.014 32.6729 197.333 31.9729 197.318 31.9576C196.633 31.2477 195.86 30.5377 195.845 30.524C195.066 29.8101 194.417 29.0072 194.411 29.0005C193.775 28.191 193.474 27.166 193.469 27.149C193.18 26.1192 193.486 24.8134 193.489 24.7993C193.77 23.535 194.521 22.7681 194.521 22.7681C195.269 21.9957 196.295 21.6371 196.306 21.6333C197.338 21.2749 198.411 21.2749 198.411 21.2749ZM85.0176 23.9927C84.0655 23.9929 83.3535 24.8687 83.3535 24.8687C82.6595 25.7254 82.2014 27.1568 82.1914 27.188C81.7303 28.6415 81.4795 30.3843 81.4795 30.3843C81.2289 32.246 81.209 33.7593 81.209 33.7593C81.199 35.2625 81.6299 36.149 81.6299 36.149C82.0593 37.0311 83.1049 37.0347 83.1133 37.0347C83.8478 37.0347 84.4349 36.5366 84.4463 36.5269C85.0477 36.0192 85.4795 35.2124 85.4795 35.2124C85.9065 34.4036 86.1566 33.5069 86.1611 33.4908L87.1426 27.0093C87.1724 25.6873 86.6116 24.8543 86.6016 24.8394C86.0402 23.9932 85.0176 23.9927 85.0176 23.9927ZM150.455 23.9927C149.503 23.9929 148.791 24.8687 148.791 24.8687C148.097 25.7253 147.639 27.1567 147.629 27.188C147.168 28.6415 146.917 30.3843 146.917 30.3843C146.666 32.246 146.646 33.7593 146.646 33.7593C146.636 35.2625 147.067 36.149 147.067 36.149C147.497 37.0317 148.544 37.0347 148.551 37.0347C149.286 37.0347 149.873 36.5363 149.884 36.5269C150.485 36.0192 150.916 35.2124 150.916 35.2124C151.341 34.4068 151.591 33.5141 151.598 33.4908L152.58 27.0093C152.61 25.6875 152.049 24.8546 152.039 24.8394C151.478 23.9932 150.455 23.9927 150.455 23.9927ZM108.304 23.9927C106.981 23.9928 106.119 25.0982 106.119 25.0982C105.257 26.1933 104.726 28.2837 104.726 28.2837H110.179C110.299 27.0592 110.209 26.0933 110.209 26.0933C110.119 25.1177 109.667 24.5601 109.667 24.5601C109.226 23.9928 108.304 23.9927 108.304 23.9927ZM185.289 23.9927C183.966 23.9928 183.104 25.0982 183.104 25.0982C182.242 26.1934 181.711 28.2837 181.711 28.2837H187.164C187.284 27.0592 187.193 26.0933 187.193 26.0933C187.103 25.1177 186.652 24.5601 186.652 24.5601C186.211 23.9928 185.289 23.9927 185.289 23.9927Z" fill="white"/>
</g>
<defs>
<clipPath id="clip0_112_4">
<rect width="203" height="52.9274" fill="white" transform="translate(0 0.0363007)"/>
</clipPath>
</defs>
</svg>
